<svg fill="none" height="24" viewBox="0 0 24 24" width="24" xmlns="http://www.w3.org/2000/svg"><rect fill="#ededed" height="24" rx="12" width="24"/><path d="m12.1227 7.27224c1.1277-.00069 2.2194.39175 3.0814 1.10778l2.4147-2.26429c-1.8794-1.70643-4.4657-2.44077-6.9792-1.98164-2.5135.45912-4.66023 2.058-5.79304 4.31465l2.72221 2.06616c.65108-1.93331 2.48543-3.23947 4.55393-3.24266z" fill="#d94f3d"/><path d="m7.32292 11.9986c.00068-.5044.08371-1.0053.2459-1.4837l-2.72222-2.06617c-1.1288 2.23607-1.1288 4.86367 0 7.09977l2.72222-2.0662c-.16219-.4784-.24522-.9794-.2459-1.4837z" fill="#f2c042"/><path d="m19.9132 10.5443h-7.7535v3.2721h4.3936c-.2614.9252-.8602 1.7229-1.6818 2.2403l2.7012 2.0505c1.7261-1.5255 2.7403-4.0061 2.3405-7.5629z" fill="#5085ed"/><path d="m14.8703 16.0567c-.8347.4705-1.7864.7019-2.7476.6682-2.0685-.0031-3.90285-1.3093-4.55393-3.2426l-2.72221 2.0661c1.37149 2.7224 4.18992 4.4456 7.27614 4.4486 1.9909.0533 3.9315-.62 5.4488-1.8905z" fill="#57a75c"/></svg>